<svg width="286" height="286" viewBox="0 0 286 286" fill="none" xmlns="http://www.w3.org/2000/svg">
<path fill-rule="evenodd" clip-rule="evenodd" d="M168.804 143.492L244.74 67.5555C251.73 60.5655 251.73 49.2325 244.74 42.2435C237.75 35.2535 226.418 35.2535 219.428 42.2435L143.491 118.18L67.5538 42.2425C60.5638 35.2525 49.2317 35.2525 42.2417 42.2425C35.2527 49.2325 35.2527 60.5655 42.2417 67.5545L118.179 143.49L42.2417 219.428C35.2527 226.418 35.2527 237.751 42.2417 244.74C49.2317 251.73 60.5638 251.73 67.5538 244.74L143.491 168.803L219.428 244.74C226.417 251.73 237.75 251.73 244.74 244.74C251.73 237.75 251.73 226.418 244.74 219.428L168.804 143.492Z" fill="white"/>
</svg>
