<svg width="286" height="286" viewBox="0 0 286 286" fill="none" xmlns="http://www.w3.org/2000/svg">
<path d="M249 166.072V245H203.347V171.358C203.347 152.859 196.744 140.234 180.219 140.234C167.605 140.234 160.098 148.742 156.795 156.973C155.591 159.915 155.281 164.01 155.281 168.129V245H109.613C109.613 245 110.228 120.275 109.613 107.353H155.276V126.864C155.184 127.01 155.063 127.167 154.976 127.308H155.276V126.864C161.343 117.498 172.178 104.119 196.43 104.119C226.476 104.119 249 123.792 249 166.072ZM61.8418 41C46.2187 41 36 51.2709 36 64.7776C36 77.9898 45.9231 88.5725 61.2356 88.5725H61.5407C77.4663 88.5725 87.3705 77.9918 87.3705 64.7776C87.0704 51.2709 77.4663 41 61.8418 41ZM38.7123 245H84.3631V107.353H38.7123V245Z" fill="white"/>
</svg>
