<?xml version="1.0" encoding="utf-8"?>
<!-- Generator: Adobe Illustrator 21.0.2, SVG Export Plug-In . SVG Version: 6.00 Build 0)  -->
<svg version="1.1" id="Layer_1" xmlns="http://www.w3.org/2000/svg" xmlns:xlink="http://www.w3.org/1999/xlink" x="0px" y="0px"
	 viewBox="0 0 312 206" style="enable-background:new 0 0 312 206;" xml:space="preserve">
<style type="text/css">
	.st0{fill:#ffffff;}
	.st1{fill:#ffffff;}
	.st2{fill:#ffffff;}
	.st3{fill:#ffffff;}
	.st4{fill:#ffffff;}
</style>
<g>
	<g>
		<g>
			<path class="st0" d="M129.8,167.1c1.1,0.5,3.7,1.8,8.5,1.8c7.3,0,8.1-5.2,8.1-7.7v-2.9c-0.3,0.2-0.7,0.6-1.1,1
				c-0.5,0.4-1.1,0.8-1.8,1.2c-0.7,0.4-1.6,0.7-2.5,1c-1,0.3-2.1,0.5-3.4,0.5c-2.1,0-3.9-0.4-5.5-1.1c-1.6-0.7-3-1.7-4.1-2.9
				c-1.1-1.2-1.9-2.7-2.5-4.5c-0.6-1.7-0.9-3.6-0.9-5.7c0-2.2,0.4-4.2,1.2-6.1c0.8-1.9,1.9-3.5,3.3-4.8c1.4-1.4,3.1-2.4,5.1-3.2
				c2-0.8,4.1-1.1,6.6-1.1c2.3,0,4.5,0.2,6.5,0.6c2,0.4,3.6,0.9,4.8,1.3v26.6c0,4.1-1.6,12.4-13.7,12.4c-6.9,0-9.9-1.8-11.1-2.6
				L129.8,167.1z M146.5,138.4c-0.4-0.1-1-0.3-1.9-0.5c-0.9-0.2-2.2-0.3-3.9-0.3c-1.6,0-3,0.3-4.2,0.8c-1.3,0.5-2.4,1.2-3.3,2.1
				c-0.9,0.9-1.6,2-2.1,3.3c-0.5,1.3-0.8,2.7-0.8,4.2c0,1.3,0.2,2.5,0.5,3.7c0.3,1.1,0.8,2.1,1.5,3c0.7,0.9,1.5,1.5,2.5,2
				c1,0.5,2.3,0.7,3.7,0.7c1.3,0,2.5-0.2,3.6-0.6c1-0.4,1.9-0.9,2.5-1.6c0.7-0.7,1.1-1.4,1.5-2.3c0.3-0.8,0.5-1.7,0.5-2.6V138.4z"/>
		</g>
		<g>
			<path class="st0" d="M158.9,139.6c0-1.3,0-2.4,0-3.3c0-0.9,0-1.5-0.1-2.5h5.3l0.2,3.9c0.4-0.5,0.8-1,1.3-1.6
				c0.5-0.6,1.2-1.1,2-1.6c0.8-0.5,1.7-0.9,2.7-1.2c1-0.3,2.2-0.5,3.5-0.5c3.7,0,6.5,1.1,8.3,3.2c1.8,2.2,2.7,5.1,2.7,8.8v17.1h-5.5
				v-16.6c0-2.6-0.6-4.6-1.7-5.8c-1.1-1.2-2.8-1.9-4.8-1.9c-1.6,0-2.9,0.3-4,1c-1.1,0.7-1.9,1.5-2.5,2.5c-0.6,1-1.1,2.2-1.4,3.5
				c-0.3,1.3-0.4,2.7-0.4,4.1v13.2h-5.5V139.6z"/>
		</g>
		<g>
			<path class="st0" d="M191.2,133.8h5.5v28.1h-5.5V133.8z"/>
		</g>
		<g>
			<path class="st0" d="M207,138.4h-5.1v-4.6h5.1v-8.1h5.5v8.1h8.3v4.6h-8.3v13.6c0,2.3,0.4,3.9,1.1,4.7c0.7,0.9,1.7,1.3,3,1.3
				c1.1,0,1.9-0.2,2.6-0.5c0.7-0.3,1.4-0.8,2.1-1.5l2.5,3.4c-1.2,1.1-2.4,2-3.6,2.5c-1.2,0.5-2.7,0.8-4.4,0.8c-3,0-5.2-0.8-6.6-2.4
				c-1.4-1.6-2.1-4.2-2.1-7.6V138.4z"/>
		</g>
		<g>
			<path class="st0" d="M252.8,157.7c-0.3,0.4-0.8,0.8-1.5,1.4s-1.5,1.1-2.5,1.7c-1,0.5-2.3,1-3.7,1.4c-1.4,0.4-3,0.6-4.8,0.6
				c-2.2,0-4.2-0.4-6.1-1.1c-1.8-0.7-3.4-1.8-4.7-3.1c-1.3-1.3-2.3-3-3-4.8c-0.7-1.9-1.1-4-1.1-6.2c0-2.1,0.3-4,1-5.8
				c0.7-1.8,1.7-3.4,2.9-4.7c1.3-1.3,2.8-2.4,4.5-3.1c1.7-0.8,3.6-1.2,5.7-1.2c2.4,0,4.5,0.5,6.3,1.4c1.8,0.9,3.2,2.2,4.3,3.7
				c1.1,1.6,1.9,3.3,2.5,5.3c0.5,2,0.8,4.1,0.8,6.2h-22.4c0,1.3,0.3,2.4,0.8,3.5c0.5,1.1,1.2,2,2,2.8c0.9,0.8,1.8,1.4,2.9,1.8
				c1.1,0.4,2.3,0.7,3.5,0.7c2.4,0,4.4-0.4,5.9-1.2c1.5-0.8,2.7-1.6,3.4-2.4L252.8,157.7z M247.8,145.2c-0.2-2.2-0.9-4.1-2.3-5.6
				c-1.4-1.5-3.3-2.3-5.9-2.3c-1.3,0-2.5,0.2-3.5,0.7c-1,0.4-1.9,1-2.7,1.8c-0.7,0.7-1.3,1.6-1.7,2.5c-0.4,1-0.6,1.9-0.7,3H247.8z"
				/>
		</g>
		<g>
			<rect x="191.2" y="124.8" class="st0" width="5.5" height="5"/>
		</g>
		<g>
			<g>
				<path class="st0" d="M105.3,162.8c-2.2,0-4.2-0.4-6.1-1.2c-1.8-0.8-3.4-1.9-4.7-3.3c-1.3-1.4-2.4-3-3.1-4.8s-1.1-3.8-1.1-5.8
					s0.4-4,1.1-5.8c0.8-1.8,1.8-3.4,3.1-4.8c1.3-1.4,2.9-2.5,4.7-3.3c1.8-0.8,3.9-1.2,6.1-1.2c2.2,0,4.2,0.4,6,1.2
					c1.8,0.8,3.4,1.9,4.8,3.3c1.3,1.4,2.4,3,3.2,4.8c0.8,1.8,1.1,3.8,1.1,5.8s-0.4,4-1.1,5.8c-0.8,1.8-1.8,3.4-3.2,4.8
					c-1.3,1.4-2.9,2.5-4.8,3.3C109.5,162.4,107.5,162.8,105.3,162.8z M105.3,158c1.5,0,2.8-0.3,4-0.9c1.2-0.6,2.2-1.4,3-2.3
					c0.8-1,1.4-2.1,1.9-3.3c0.4-1.2,0.6-2.5,0.6-3.8c0-1.3-0.2-2.5-0.6-3.8c-0.4-1.2-1.1-2.4-1.9-3.3c-0.8-1-1.8-1.8-3-2.4
					c-1.2-0.6-2.5-0.9-3.9-0.9c-1.5,0-2.8,0.3-4,0.9c-1.2,0.6-2.2,1.4-3,2.3c-0.8,1-1.4,2.1-1.9,3.3c-0.4,1.2-0.6,2.5-0.6,3.8
					c0,1.3,0.2,2.6,0.6,3.8c0.4,1.2,1.1,2.3,1.9,3.3c0.8,1,1.8,1.8,3,2.4C102.6,157.7,103.9,158,105.3,158z"/>
			</g>
		</g>
		<path class="st0" d="M87,155.5c-0.4,0.7-1,1.4-1.8,2.2c-0.8,0.8-1.8,1.6-3,2.4c-1.2,0.7-2.6,1.4-4.1,1.9c-1.6,0.5-3.3,0.8-5.1,0.8
			c-2.7,0-5.1-0.5-7.3-1.4c-2.2-0.9-4.1-2.2-5.7-3.9c-1.6-1.7-2.8-3.7-3.7-6c-0.9-2.3-1.3-4.8-1.3-7.5c0-2.6,0.4-5.1,1.3-7.4
			c0.9-2.3,2.1-4.3,3.7-6.1c1.6-1.7,3.5-3.1,5.7-4.1c2.2-1,4.7-1.5,7.4-1.5c1.9,0,3.6,0.2,5.1,0.7c1.5,0.5,2.8,1.1,4,1.8
			s2.1,1.5,2.9,2.3c0.8,0.8,1.5,1.6,2,2.4l-3.7,3.1c-0.4-0.6-0.9-1.3-1.5-1.9c-0.6-0.7-1.3-1.3-2.1-1.8c-0.8-0.5-1.8-1-2.9-1.4
			c-1.1-0.4-2.3-0.5-3.7-0.5c-2,0-3.8,0.4-5.3,1.1c-1.6,0.8-2.9,1.8-4,3.1c-1.1,1.3-1.9,2.8-2.5,4.6c-0.6,1.7-0.9,3.6-0.9,5.5
			s0.3,3.8,0.9,5.5c0.6,1.7,1.4,3.2,2.5,4.5c1.1,1.3,2.4,2.3,4,3c1.6,0.7,3.3,1.1,5.2,1.1c1.6,0,3-0.2,4.2-0.6
			c1.2-0.4,2.2-0.9,3-1.5c0.8-0.6,1.5-1.2,2-1.8c0.5-0.6,1-1.1,1.3-1.5L87,155.5z"/>
	</g>
</g>
<g>
	<path class="st1" d="M191.2,63.2v-6.5c0-3.1-2.5-5.6-5.6-5.6c-3.1,0-5.6,2.5-5.6,5.6V65c-3.4,0.6-7,1.4-10.9,2.3V38.1
		c0-3.1-2.5-5.6-5.6-5.6c-3.1,0-5.6,2.5-5.6,5.6v31.9c-0.3,0.1-0.6,0.2-1,0.2c-3.5,0.9-6.7,1.7-9.9,2.4V47.7c0-3.1-2.5-5.6-5.6-5.6
		c-3.1,0-5.6,2.5-5.6,5.6V75c-3.9,0.8-7.5,1.5-10.9,2V64.3c0-3.1-2.5-5.6-5.6-5.6c-3.1,0-5.6,2.5-5.6,5.6v14.2
		c-12.4,1.4-19.6,0.8-20.5-1.3c-1.6-3.8,9.9-9.1,13-10.8c0.1,0,0.1-0.1,0-0.2c0-0.1-0.2-0.1-0.2-0.1c-3.3,1.4-17.2,7.2-15.6,12.1
		c1.8,5.5,23.4,6.9,68.1-4c37.6-9.2,54.8-10.9,56.4-7.4c1.4,3-8,8.7-16.9,12.7c-0.2,0.1-0.4,0.4-0.3,0.7c0.1,0.3,0.4,0.4,0.7,0.3
		c3.3-1.3,20.3-8.5,19.4-14.6C217.6,61.9,208.6,60.8,191.2,63.2z"/>
	<g>
		<path class="st2" d="M113.9,89.6v4.2c0,3.1,2.5,5.6,5.6,5.6c3.1,0,5.6-2.5,5.6-5.6v-5.4C121,88.9,117.3,89.3,113.9,89.6z"/>
		<path class="st3" d="M136,86.6v15.1c0,3.1,2.5,5.6,5.6,5.6c3.1,0,5.6-2.5,5.6-5.6V84.4C143.2,85.2,139.5,86,136,86.6z"/>
		<path class="st4" d="M158.8,81.7c-0.3,0.1-0.5,0.1-0.7,0.2v10.6c0,3.1,2.5,5.6,5.6,5.6c3.1,0,5.6-2.5,5.6-5.6V79.2
			C165.9,79.9,162.4,80.8,158.8,81.7z"/>
		<path class="st3" d="M180.1,76.8v6.4c0,3.1,2.5,5.6,5.6,5.6c3.1,0,5.6-2.5,5.6-5.6v-8.5C187.9,75.2,184.2,75.9,180.1,76.8z"/>
	</g>
</g>
</svg>
